<svg width="928.43" height="692.64" viewBox="0 0 245.65 183.26" xmlns="http://www.w3.org/2000/svg"><g style="display:inline"><path style="display:inline;fill:#fff;fill-opacity:1;stroke-width:5.12" class="color787677 svgShape" d="M19.77 65.28C2.72 78.27-5.53 93.9-5 109.5l-.24 4.31c0 18.31 12.15 36.62 36.29 50.55 47.95 27.87 125.71 27.87 173.34 0 23.82-13.77 35.72-40.83 35.8-49.9 1.2-30.2-21.48-46.25-21.48-46.25s.02 2.51-.08 3.77c.07-.86.12-1.71.12-2.56l-.04 6.2v.06c-2.05 28.91 10.02 50.19-28.82 74.18 0-31.4 0-28.76 0 0L119.11 109l-31.6 54.75c-18.56-5.29-26.74-7.8-38.72-13.89-19.55-11.29-29.32-26.25-29.27-41.18l.03-10.64c-.03-.62-.05-1.25-.05-1.88l.03-21.87v.16l.04-5.6v.14c0-1.24.07-2.48.2-3.71z" transform="translate(5.24 -2)"/><path fill="#787677" d="M240.2 114.46c2.12 13.16-12 36.13-35.8 49.9-47.64 27.87-125.4 27.87-173.35 0C6.9 150.43-5.24 132.12-5.24 113.8l.32-5.87c0 18.3 12.15 36.77 36.3 50.7 47.95 27.7 125.7 27.7 173.5 0 23.65-13.77 33.35-32.8 35.32-44.18z" class="color787677 svgShape" style="display:inline;fill:#a6a3a5;fill-opacity:1;stroke-width:5.12" transform="translate(5.24 -2)"/><path style="display:inline;opacity:1;fill:#000;fill-opacity:.369444;stroke-width:5.12" d="m119.16 69.16-31.6 54.75-.06 27.32.03-.06-.01 12.58L119.1 109l.03-12.52-.02.04zm99.6.26c-.05 14.74-9.68 29.46-28.85 40.6v5.44h-.02v34.4c19.18-11.14 28.77-25.86 28.8-40.6l.04-12.52s-.07 13.79-.02-21v-.12zm-98.13 33.1c-.03 0-.06 0-.1.02-.16.06-.23.26-.27.44a3.5 3.5 0 0 0-.03 1.12l-.08-.41c-.03.47-.04 1 .3 1.32.37.34.95.28 1.4.09.3-.12.6-.33.6-.63.02-.22-.13-.4-.26-.56a6.89 6.89 0 0 0-1.16-1.23.71.71 0 0 0-.37-.16h-.03zm7.79 2.73a.3.3 0 0 0-.1.02c-.17.07-.24.27-.27.44a3.5 3.5 0 0 0-.04 1.12l-.07-.4c-.03.46-.04 1 .3 1.32.37.34.95.27 1.4.09.29-.12.6-.33.6-.64.01-.2-.13-.4-.26-.56a6.9 6.9 0 0 0-1.17-1.22.71.71 0 0 0-.36-.17h-.03zm-1.57 2.69c-.03 0-.06 0-.1.02-.17.06-.23.26-.27.44a3.5 3.5 0 0 0-.03 1.12l-.08-.41c-.03.47-.04 1 .3 1.33.37.33.95.27 1.4.08.3-.12.6-.33.6-.63.02-.21-.13-.4-.26-.56a6.9 6.9 0 0 0-1.17-1.23.71.71 0 0 0-.36-.16h-.03zm8.8 1.08-.11.02c-.17.07-.24.27-.27.44a3.5 3.5 0 0 0-.04 1.12l-.08-.4c-.03.46-.03 1 .31 1.32.36.34.94.27 1.4.09.29-.12.6-.33.6-.64.01-.2-.13-.4-.27-.56a6.9 6.9 0 0 0-1.16-1.22.71.71 0 0 0-.36-.17h-.02zm5.8 4.04c-.03 0-.06 0-.1.02-.16.06-.23.26-.27.44a3.5 3.5 0 0 0-.03 1.12l-.08-.41c-.03.47-.03 1 .3 1.33.37.33.95.27 1.41.08.28-.12.59-.33.6-.63 0-.21-.14-.4-.27-.56a6.89 6.89 0 0 0-1.16-1.23.71.71 0 0 0-.37-.16h-.03zm-6.35 1.06c-.03 0-.06 0-.1.02-.16.06-.23.26-.26.44-.08.37-.09.75-.04 1.12l-.08-.4c-.03.46-.03 1 .31 1.32.36.34.94.27 1.4.08.29-.11.6-.32.6-.63.01-.21-.13-.4-.27-.56a6.89 6.89 0 0 0-1.16-1.22.71.71 0 0 0-.36-.17h-.04zm13.01 3.75-.1.02c-.16.07-.23.27-.27.44a3.5 3.5 0 0 0-.03 1.12l-.08-.4c-.03.46-.03 1 .31 1.32.36.34.94.27 1.4.09.29-.12.6-.33.6-.64 0-.2-.13-.4-.27-.56a6.89 6.89 0 0 0-1.16-1.22.71.71 0 0 0-.36-.17h-.04zM27.03 123.3c.01.06-.97.46-1.06.55-.25.26-.54.61-.7.94-.13.29-.17.53.05.78.15.15.4.2.57.32.22.17.39.4.58.6.2.22.48.43.8.4.11 0 .23-.04.35-.03.5.03.6.83 1.08 1 .32.1.66-.14.86-.41.24-.34.36-.76.34-1.17-.04-.75-.75-.66-1.4-1.94-.07-.14-.14-.29-.26-.38-.11-.08-.25-.1-.37-.14-.32-.1-.61-.28-.84-.52zm125.63 1.58c-.03 0-.06 0-.1.02-.16.06-.23.26-.27.44a3.5 3.5 0 0 0-.03 1.12l-.08-.41c-.03.47-.03 1 .31 1.33.36.34.94.27 1.4.08.29-.11.6-.32.6-.63 0-.21-.13-.4-.27-.56a6.89 6.89 0 0 0-1.16-1.23.71.71 0 0 0-.36-.16h-.04zm13.31 1.74c-.04 0-.07 0-.11.02-.17.06-.24.26-.27.44a3.5 3.5 0 0 0-.04 1.12l-.08-.41c-.03.47-.03 1 .31 1.33.36.34.94.27 1.4.08.29-.11.6-.32.6-.63.01-.21-.13-.4-.27-.56a6.89 6.89 0 0 0-1.16-1.22.71.71 0 0 0-.36-.17h-.02zm9.27 5.99c-.04 0-.07 0-.1.02-.17.06-.24.26-.27.44a3.5 3.5 0 0 0-.04 1.12l-.08-.41c-.03.47-.03 1 .31 1.33.36.34.94.27 1.4.08.29-.11.6-.32.6-.63 0-.21-.13-.4-.27-.56a6.89 6.89 0 0 0-1.16-1.23.71.71 0 0 0-.36-.16h-.04zm-4.55.95-.1.02c-.18.07-.25.27-.28.44a3.5 3.5 0 0 0-.04 1.12l-.07-.4c-.03.46-.04 1 .3 1.32.37.34.95.27 1.4.09.29-.12.6-.33.6-.64.01-.2-.13-.4-.26-.56a6.89 6.89 0 0 0-1.17-1.22.71.71 0 0 0-.36-.17h-.02zm-134.06 1.2c-.14 0-.31.1-.52.35-.22.27-.34.6-.35.94 0 .11.01.23.06.33.05.1.15.18.23.27.32.3.57.66.74 1.06.05.12.1.25.2.33.07.07.18.1.28.14.26.1.49.26.66.48-.03-.04.82-.32.9-.4.4-.34.95-.95.63-1.36-.08-.1-.27-.06-.88-.82-.41-.51-.48-.3-.92-.37-.38-.06-.6-.94-1.03-.94zm4.95.04c-.44 0-.88.62-.9 1.25 0 .31.09.4.3.6.31.3.57.66.73 1.06.05.12.1.25.2.33.34.3.47.03.95.62-.04-.04.81-.32.9-.4.22-.19.47-.46.61-.72.34-.6-.04-.61-.43-.94-.38-.32-.54-.9-1.06-.9-.93-.01-.56-.63-1.12-.87a.44.44 0 0 0-.18-.03zm143.28 1.17c-.03 0-.06 0-.1.02-.16.06-.23.26-.27.44-.07.37-.08.75-.03 1.12l-.08-.4c-.03.46-.04 1 .3 1.32.37.34.95.27 1.4.08.3-.11.6-.32.6-.63.02-.21-.13-.4-.26-.56a6.89 6.89 0 0 0-1.16-1.22.71.71 0 0 0-.37-.17h-.03zm-144.42 2.99c-.15 0-.32.1-.53.35-.21.26-.34.6-.34.93 0 .11 0 .23.06.33.05.1.14.19.23.27.32.3.57.66.74 1.07.05.11.1.24.19.32.08.07.19.1.3.14.25.1.48.27.65.48-.04-.04.82-.32.9-.4.22-.19.47-.46.62-.72.33-.59-.05-.61-.44-.94-.17-.14-.3-.34-.43-.52-.16-.2-.38-.38-.63-.38-.1 0-.2.03-.3.01-.38-.05-.59-.94-1.02-.94zm141.35 1.61c-.04 0-.07 0-.1.02-.17.06-.24.26-.27.44a3.5 3.5 0 0 0-.04 1.12l-.08-.41c-.03.47-.03 1 .31 1.33.36.34.94.27 1.4.08.29-.11.6-.32.6-.63.01-.21-.13-.4-.27-.56a6.89 6.89 0 0 0-1.16-1.23.71.71 0 0 0-.36-.16h-.04zm-120.22 6.77c-.14 0-.31.1-.52.35-.37.45-.54 1.08-.06 1.53.49.46.93 1.4.93 1.4.34.29.47.02.95.61-.03-.04.82-.32.9-.39 1.28-1.13.65-1.28.18-1.66-.65-.55-.15-.72-1.35-.9-.38-.05-.6-.93-1.03-.94zm-2.94 2.58c-.14 0-.31.1-.52.35-.37.44-.4 1.03-.3 1.26.02.03.69.65.98 1.34.05.12.1.24.2.33.07.07.18.1.28.14.26.1.49.26.66.47-.03-.04.82-.32.9-.39.39-.34.95-.95.63-1.36-.08-.1-.27-.07-.88-.82-.42-.52-.49-.31-.92-.37-.39-.06-.6-.94-1.03-.95zm4.85 2.5c-.15 0-.32.1-.53.35-.36.45-.4 1.03-.29 1.26.05.11.15.2.24.28.31.3.56.66.73 1.06.05.12.1.25.2.33.08.07.18.1.29.14.25.1.48.26.65.48-.03-.05.82-.32.9-.4.22-.2.48-.47.62-.72.13-.23.18-.42.01-.64-.1-.14-.3-.19-.44-.3-.18-.15-.3-.34-.44-.52-.16-.2-.37-.38-.62-.38-.1 0-.2.02-.3 0-.38-.05-.59-.93-1.02-.94zm15.44 3.56h-.02c-.2.01-.4.15-.53.31-.22.26-.34.6-.35.94 0 .1 0 .22.06.32.05.1.14.19.23.27.32.3.57.67.74 1.07.05.12.1.24.19.33.08.07.19.1.3.14.25.1.48.26.65.47-.03-.04.82-.32.9-.39.22-.2.47-.47.62-.72.13-.23.18-.42 0-.64-.1-.14-.3-.2-.43-.3-.18-.15-.3-.35-.44-.52-.16-.2-.37-.38-.63-.39-.1 0-.2.03-.29.02-.41-.06-.44-.72-.83-.88a.42.42 0 0 0-.17-.03z" transform="translate(5.24 -2)"/><path style="display:inline;opacity:1;fill:#000;fill-opacity:.176471;stroke-width:5.12" class="color704E2C svgShape" d="M118.46 11.47h-.3c.35.65.76 1.2 1.2 1.67a18.1 18.1 0 0 0-.88-1.64l-.02-.03zm1.52 0c.41 1 .79 2.03 1.11 3.08.32.16.6.26.84.29 2.04.2 4.41 3.17 2.6 7.02a4.87 4.87 0 0 1-2.55 2.44c-.12.6-.29 1.17-.5 1.73-.34.85-2.13 7.2-2.1 8.29.02.4.03.97.03 1.52 3.77.13 6.44 1 8.38 2.17h.02l.09.05.02.02a1 1 0 0 1 .09.07h.02c.1.06.18.1.25.16a12.94 12.94 0 0 1 4.47 5.21c1.44 2.84.9 8-3.88 13.29-4.77 5.29-11.04 6.8-18.98 2.34a13.98 13.98 0 0 1-3.1-2.39l-.34-.36-.3-.37-.3-.37-.26-.38-.25-.39-.22-.38s-.02 0-.02-.02a19.85 19.85 0 0 1-.57-1.11v-.01l-.15-.36-.2-.52v-.02a14.85 14.85 0 0 1-.16-.49l-.07-.28-.07-.27-.07-.29-.06-.28c-.1-.46-.16-.9-.2-1.36a6.18 6.18 0 0 1-.07-1.01c-.01-.04-.02-.08 0-.12l-.01-.3v-.42c.03-1.13.18-1.9.21-2.07a16.15 16.15 0 0 1 .88-2.48l.08-.2.17-.37a12.76 12.76 0 0 1 3.4-4.6l.08-.06a6.15 6.15 0 0 1 .44-.3 11.55 11.55 0 0 1 5.4-1.63l.29-.02c1.1-.08 1.87-.03 1.87-.03l1.4-.06c.1-1.3.3-2.9.61-3.91.39-1.27 1.34-4.67 1.9-7.18-1.92.23-4.07-.15-5.95-.32-6.11-.55-5.07-6.78-1.72-12.84-6.51.23-13 .83-19.33 1.8 1.07 1.54 2.46 2.45 3.26 2.54 2.04.2 4.41 3.18 2.61 7.03-2 4-6.66 2.88-10.3 2.56-5.44-.5-5.2-5.51-2.71-10.89-6.53 1.3-12.85 3-18.86 5.1 1.1 1.95 2.75 3.08 3.65 3.19 2.05.2 4.42 3.17 2.62 7.02-2 4-6.66 2.9-10.3 2.56-5.16-.47-5.22-4.98-3.1-10.03a103.39 103.39 0 0 0-11.66 5.79c.76 3.34 3.34 5.36 4.56 5.5 1.33.13 3.28 1.83 3.28 4.33 0 .85-.2 1.7-.67 2.69-2 4-6.65 2.89-10.29 2.56-5.7-.52-5.17-5.98-2.36-11.63-33.03 22.6-31 57 5.92 78.32C59.74 116.3 73 121.06 87.57 123.9l31.6-54.75 70.74 40.86c38.58-22.42 38.43-59.32-.4-81.74-.47-.28-.95-.54-1.43-.8.96 2.82 3.2 4.51 4.31 4.64 1.34.13 3.28 1.84 3.28 4.33 0 .86-.2 1.71-.67 2.7-2 4-6.65 2.88-10.29 2.56-7.16-.65-4.5-9.1.19-15.93a117.22 117.22 0 0 0-17.23-7.03c1.04 2.53 3.08 4.04 4.13 4.16 2.05.2 4.41 3.17 2.61 7.02-2 4-6.65 2.9-10.29 2.56-6.83-.62-4.73-8.33-.45-14.96a151.69 151.69 0 0 0-19.57-4.22c1.08 2.34 2.99 3.72 4 3.83 2.04.2 4.4 3.18 2.6 7.03-2 4-6.65 2.88-10.29 2.56-6.52-.6-4.9-7.64-1.03-14.05-6.4-.76-12.89-1.17-19.4-1.21zm80.56 26.74c-1.94 6.24 2.56 10.24 4.3 10.44 1.34.13 3.28 1.84 3.28 4.33 0 .86-.2 1.7-.66 2.7-2 4-6.66 2.88-10.3 2.55-8.57-.78-3.08-12.73 3.13-19.7 0 0 0-.06.05-.06l.2-.26zM35.52 39.43c-1.94 6.24 2.57 10.24 4.3 10.44 1.34.13 3.28 1.83 3.28 4.33 0 .86-.2 1.7-.66 2.7-1.73 3.46-5.47 3.09-8.8 2.71-1.21 5.68 2.91 9.27 4.56 9.46 1.33.13 3.28 1.84 3.28 4.33 0 .86-.2 1.71-.67 2.7-2 4-6.65 2.88-10.29 2.56-8.34-.76-3.38-12.08 2.6-19.1-.33-.04-.65-.08-.97-.1-8.58-.79-3.09-12.74 3.12-19.7 0 0 0-.07.05-.07l.2-.26zm167.8 19.78c-1.94 6.24 2.56 10.24 4.3 10.44 1.34.13 3.28 1.83 3.28 4.33 0 .86-.2 1.7-.66 2.7-2 4-6.66 2.88-10.3 2.55-8.57-.78-3.08-12.73 3.13-19.7 0 0 0-.06.05-.06l.2-.26zM43.14 75.74C41.2 81.98 45.7 86 47.44 86.18c2.05.2 4.42 3.18 2.61 7.03-2 4-6.65 2.89-10.29 2.56-8.57-.78-3.08-12.74 3.13-19.7 0 0 0-.06.05-.06l.2-.27zm149.2 1.68c-1.94 6.23 2.57 10.24 4.31 10.44 2.04.2 4.41 3.17 2.61 7.02-2 4-6.65 2.89-10.29 2.56-3.63-.33-4.97-2.23-3.94-7.68.87-4.8 5.83-10.64 7.06-12.01 0 0 0-.07.05-.07l.2-.26zm-131.86 12c-1.94 6.25 2.56 10.25 4.3 10.45 2.05.2 4.42 3.17 2.62 7.02-2 4-6.66 2.89-10.3 2.56-8.57-.78-3.08-12.73 3.13-19.7 0 0 0-.06.05-.06l.2-.26zm20.46 6.34c-1.95 6.24 2.56 10.25 4.3 10.44 2.05.2 4.42 3.18 2.61 7.03-2 4-6.65 2.89-10.29 2.56-8.58-.78-3.08-12.74 3.12-19.7 0 0 0-.06.06-.06l.2-.27z" transform="translate(5.24 -2)"/><path style="display:inline;opacity:1;fill:#000;fill-opacity:.0916667;stroke-width:5.12" d="m117.68 4.4-.2.27c-.06 0-.06.07-.06.07-.1.2-.15.45-.25.65l-.22.52.32.4c.07-.6.2-1.24.4-1.9zM92.2 5.5l-.2.25c-.06 0-.06.07-.06.07-.1.2-.15.46-.25.65l-1.85 4.54c-1.83 4.67 3.36 10.1 9.94 9.25 0-2.5-1.95-4.2-3.28-4.33-1.74-.2-6.25-4.2-4.3-10.44zm51.63 1.21-.2.26c-.05 0-.05.07-.05.07-.1.2-.16.46-.26.65l-1.84 4.54c-.16.39-.31.78-.41 1.18-.75 4.41 4.4 8.83 10.34 8.07 0-2.5-1.95-4.2-3.28-4.33-1.74-.2-6.24-4.2-4.3-10.44zm-27.76 1.35-.76 1.86c-1.38 3.52 1.23 7.47 5.41 8.84a14 14 0 0 0-1.4-5.68 8.5 8.5 0 0 1-1.66-2.87c-.57-.85-1.1-1.56-1.59-2.15zM66.6 12.48l-.2.26c-.05 0-.05.06-.05.06-.1.2-.16.46-.26.66l-1.84 4.53c-.16.4-.3.79-.41 1.18-.63 3.72 3.96 8.9 10.34 8.08 0-2.5-1.95-4.2-3.28-4.33-1.74-.2-6.24-4.2-4.3-10.44zm100.95 0-.2.26c-.06 0-.06.06-.06.06-.1.2-.15.46-.25.66l-1.84 4.53c-.16.4-.31.79-.41 1.18-.63 3.72 3.96 8.9 10.34 8.08 0-2.5-1.95-4.2-3.28-4.33-1.74-.2-6.24-4.2-4.3-10.44zm-46.46 2.04a28.6 28.6 0 0 1 1.02 4.59 11 11 0 0 0 3.15.07c0-2.5-1.95-4.2-3.28-4.33a2.66 2.66 0 0 1-.9-.33zm67.05 7.17-.2.26c-.05 0-.05.07-.05.07-.1.2-.16.45-.26.65l-1.84 4.53c-1.85 4.72 3.28 10.11 9.93 9.26 0-2.5-1.94-4.2-3.28-4.33-1.74-.2-6.24-4.2-4.3-10.44zM48.72 23.3l-.2.27c-.06 0-.06.06-.06.06-.1.2-.15.46-.25.66l-1.85 4.53c-1.93 4.94 3.78 10.04 9.94 9.25 0-2.49-1.95-4.2-3.28-4.33-1.74-.2-6.25-4.2-4.3-10.44zM200.6 38.2l-.2.27c-.06 0-.06.07-.06.07-.1.2-.15.45-.25.65l-1.85 4.53c-1.72 4.4 3.05 10.14 9.94 9.26 0-2.5-1.95-4.2-3.28-4.33-1.74-.2-6.25-4.2-4.3-10.44zM35.58 39.45l-.2.26c-.06 0-.06.07-.06.07l-2.1 5.18c-1.34 3.44 1.56 7.14 3.84 8.2 1.95.93 4.05 1.32 6.1 1.06 0-2.5-1.95-4.2-3.28-4.33-1.74-.2-6.25-4.2-4.3-10.44zm-1.63 19.2-.2.26c-.05 0-.05.07-.05.07-.03.05.27-.64-2.1 5.19-1.74 4.41 3.17 10.12 9.93 9.25 0-2.5-1.95-4.2-3.28-4.33-1.74-.2-6.24-4.2-4.3-10.44zm169.43.58-.2.26c-.06 0-.06.07-.06.07-.1.2-.15.45-.25.65l-1.85 4.53c-.58 1.48-.85 2.73.77 5.25.88 1.39 1.6 2.27 3.07 2.96 1.95.92 4.05 1.31 6.1 1.05 0-2.5-1.95-4.2-3.28-4.33-1.74-.2-6.25-4.2-4.3-10.44zM43.19 75.75l-.2.26c-.05 0-.05.07-.05.07-.1.2-.16.46-.26.66-2.15 5.3-3.34 6.26-1.07 9.78 2.13 3.35 5.74 4.44 9.16 4 0-2.5-1.94-4.2-3.27-4.33-1.75-.2-6.25-4.2-4.3-10.44zm149.21 1.68-.2.26c-.05 0-.05.06-.05.06-.1.2-.16.46-.26.66l-1.84 4.53c-.16.4-.3.79-.41 1.18-.26 1.51.46 2.96 1.18 4.07 2.07 3.26 5.48 4.48 9.16 4 0-2.49-1.94-4.2-3.28-4.32-1.74-.2-6.24-4.2-4.3-10.44zm-131.86 12-.2.27c-.06 0-.06.06-.06.06-.1.2-.15.46-.26.66l-1.84 4.53c-1.97 5.02 3.94 10.03 9.93 9.26 0-2.5-1.94-4.2-3.27-4.33-1.74-.2-6.25-4.2-4.3-10.44zm20.45 6.34-.2.26c-.05 0-.05.07-.05.07-.1.2-.16.46-.26.65l-1.84 4.54c-1.84 4.67 3.36 10.1 9.93 9.25 0-2.49-1.94-4.2-3.28-4.33-1.74-.2-6.24-4.2-4.3-10.44z" transform="translate(5.24 -2)"/><g style="display:inline"><path fill="#e02426" d="M666.09 372.55c-4.77 5.29-11.04 6.81-18.98 2.34a14.2 14.2 0 0 1-2.37-1.68 11.16 11.16 0 0 1-2.4-2.97l-.03-.01c-.27-.5-.52-1-.71-1.49-.13-.35-.26-.68-.37-1.02l-.26-1.12c-.1-.46-.16-.9-.2-1.37a6.18 6.18 0 0 1-.07-1c-.01-.04-.02-.08 0-.12l-.01-.3c-.01-1.36.17-2.31.21-2.49.13-.58 1.5-5.27 4.53-7.65 3.05-2.38 8.08-2.04 8.08-2.04 5.47-.35 9.07.66 11.5 2.12.1.04.16.08.23.14h.02c.08.06.17.1.24.16a12.94 12.94 0 0 1 4.47 5.21c1.45 2.84.9 8-3.88 13.29z" class="colorE02426 svgShape" style="stroke-width:5.12" transform="translate(-531.98 -317.74)"/><path fill="#ee4541" d="M643.87 366.95c-.6-1.2-.6-2.6-.45-3.94.23-2.2.93-4.54 2.72-5.84a7.2 7.2 0 0 1 3.96-1.17c1.4-.06 2.79.1 4.19.1.66 0 1.32-.04 1.99-.08-.07.2-.28.31-.47.4a24.5 24.5 0 0 1-4.15 1.58c-.87.2-1.75.33-2.57.67a5.93 5.93 0 0 0-3.14 3.22 7.89 7.89 0 0 0-.38 4.53c.08.4.18.8.29 1.18.15.58.46 1.26.49 1.85.03.72-.43.37-.7-.04-.57-.84-1.32-1.54-1.78-2.46z" class="colorEE4541 svgShape" style="stroke-width:5.12" transform="translate(-531.98 -317.74)"/><path fill="#cf2027" d="M665.24 353.9c-3.91-.1-7.8-.13-11.7-.11-.97-.02-1.94 0-2.9.13a11.1 11.1 0 0 0-7.08 3.98c-.4.48-.74 1-1 1.57-.45 1-.59 2.09-.6 3.17-.03 2.9.8 5.81 2.37 8.26l.95 2.37c-.15.07-.35.05-.54-.06a11.16 11.16 0 0 1-2.4-2.96s-.02 0-.03-.02c-.27-.5-.52-1-.71-1.48-.13-.36-.26-.7-.36-1.03a11.32 11.32 0 0 1-.47-2.48 6.18 6.18 0 0 1-.07-1.01c-.01-.04-.02-.08 0-.12l-.01-.3c-.01-1.36.17-2.3.21-2.49.13-.58 1.5-5.27 4.53-7.65 3.05-2.38 8.08-2.04 8.08-2.04 5.47-.35 9.07.66 11.5 2.12.1.04.16.08.23.14z" class="colorCF2027 svgShape" style="stroke-width:5.12" transform="translate(-531.98 -317.74)"/><path fill="#ee4541" d="M667.7 368.27a11 11 0 0 0 .95-2.07c.4-1.32.28-2.74.17-4.11-.13-1.48-.31-3.08-1.35-4.14a5.56 5.56 0 0 0-1.6-1.05c-1.59-.76-3.4-1.31-5.08-.84a.71.71 0 0 0-.33.17c-.12.12-.14.31-.14.48-.01.9.32 1.81.93 2.49.5.56 1.16.95 1.73 1.45a6.25 6.25 0 0 1 2.03 3.56c.43 2.3-.48 4.63-1.58 6.7-.27.52-1.23 1.93-.53 2.4.64.42 1.23-.44 1.59-.8a18 18 0 0 0 3.21-4.24z" class="colorEE4541 svgShape" style="stroke-width:5.12" transform="translate(-531.98 -317.74)"/><path fill="#ba2025" d="M652.83 352.7s-.7.94-.2 1.42c.52.49 6.45 0 7.07.02.63.01.63-.33-.58-.99-1.2-.65-4.68-1.4-6.29-.45z" class="colorBA2025 svgShape" style="stroke-width:5.12" transform="translate(-531.98 -317.74)"/><path fill="#80bc41" d="M654.8 353.74c-.05-.26.14-4.17.72-6.08.58-1.92 2.47-8.7 2.32-9.9-.16-1.22 1.13-5.07-2.14-10.52-3.27-5.46-5.48-6.16-6.7-6.5-1.23-.36-.49-4.19 1.58-2.63a21.03 21.03 0 0 1 4.92 5.44c2.73 5.2 5.34 12.75 3.2 18.22-.34.85-2.13 7.2-2.1 8.29.05 1.1.04 3.3.04 3.3.1.5-1.74.87-1.84.38z" class="color80BC41 svgShape" style="stroke-width:5.12" transform="translate(-531.98 -317.74)"/></g></g></svg>