<?xml version="1.0" encoding="UTF-8" standalone="no"?>
<!-- Created with Inkscape (http://www.inkscape.org/) -->

<svg
   width="508mm"
   height="175.78105mm"
   viewBox="0 0 508 175.78105"
   version="1.1"
   id="svg600"
   xmlns="http://www.w3.org/2000/svg"
   xmlns:svg="http://www.w3.org/2000/svg">
  <defs
     id="defs597">
    <clipPath
       clipPathUnits="userSpaceOnUse"
       id="clipPath20920">
      <rect
         style="opacity:1;fill:#4c2f27;fill-opacity:1;stroke-width:0.509998;stroke-linecap:round;stroke-linejoin:round;stroke-miterlimit:13.4"
         id="rect20922"
         width="508"
         height="285.75"
         x="-547.27368"
         y="-113.01424" />
    </clipPath>
  </defs>
  <g
     id="layer1"
     transform="translate(169.6822,153.3312)">
    <path
       style="fill:#ea8b82;fill-opacity:1;stroke:none;stroke-width:1;stroke-linecap:round;stroke-linejoin:round;stroke-miterlimit:13.4;stroke-dasharray:none;stroke-opacity:1"
       d="m -546.64415,70.486948 c 18.03813,3.250956 49.29024,5.977651 76.87207,13.738445 27.58182,7.760794 51.49236,20.555027 80.43753,20.764537 28.94518,0.20952 62.9233,-12.165238 108.01926,-18.247836 45.09596,-6.082599 101.30671,-5.872857 145.14376,-19.506617 43.83705,-13.63376 75.298286,-41.109903 93.965766,-56.316521 18.66748,-15.206618 24.540227,-18.1429938 28.000994,-8.0748021 3.460767,10.0681921 4.5094752,33.1397631 6.5020919,70.4750271 1.9926168,37.335259 4.9290016,88.931709 -2.7268259,117.876509 -7.655827,28.94481 -25.903343,35.23706 -56.421739,39.53689 -30.518396,4.29983 -73.305677,6.60699 -132.349847,7.23622 -59.04417,0.62924 -134.3414,-0.41947 -198.2095,-2.3072 -63.8681,-1.88773 -116.30349,-4.61437 -142.20723,-18.45772 -25.90374,-13.84336 -25.27451,-38.80259 -26.63787,-66.90882 -1.36337,-28.10623 -4.71923,-59.357739 -3.98494,-73.096079 0.73429,-13.73834 5.55835,-9.962989 23.59648,-6.712033 z"
       id="path20914"
       clip-path="url(#clipPath20920)"
       transform="translate(377.59148,-150.28592)" />
  </g>
</svg>
