<?xml version="1.0" encoding="UTF-8" standalone="no"?>
<!-- Created with Inkscape (http://www.inkscape.org/) -->

<svg
   width="8.4666595mm"
   height="8.5777197mm"
   viewBox="0 0 8.4666595 8.5777197"
   version="1.1"
   id="svg5"
   inkscape:version="1.2.2 (b0a8486541, 2022-12-01)"
   xml:space="preserve"
   sodipodi:docname="favicon-pastel-tortones.svg"
   xmlns:inkscape="http://www.inkscape.org/namespaces/inkscape"
   xmlns:sodipodi="http://sodipodi.sourceforge.net/DTD/sodipodi-0.dtd"
   xmlns="http://www.w3.org/2000/svg"
   xmlns:svg="http://www.w3.org/2000/svg"><sodipodi:namedview
     id="namedview7"
     pagecolor="#ffffff"
     bordercolor="#000000"
     borderopacity="0.25"
     inkscape:showpageshadow="2"
     inkscape:pageopacity="0.0"
     inkscape:pagecheckerboard="0"
     inkscape:deskcolor="#38424d"
     inkscape:document-units="mm"
     showgrid="false"
     showborder="false"
     showguides="true"
     inkscape:zoom="1.1893651"
     inkscape:cx="150.08007"
     inkscape:cy="24.382757"
     inkscape:window-width="1920"
     inkscape:window-height="994"
     inkscape:window-x="0"
     inkscape:window-y="0"
     inkscape:window-maximized="1"
     inkscape:current-layer="layer1" /><defs
     id="defs2" /><g
     inkscape:label="Capa 1"
     inkscape:groupmode="layer"
     id="layer1"
     transform="translate(236.32037,-93.43099)"><path
       id="path1655"
       style="font-size:19.868px;font-family:BodoniFLF;-inkscape-font-specification:BodoniFLF;fill:#fdcb2a;fill-opacity:1;stroke:none;stroke-width:0.132292;stroke-linecap:round;stroke-linejoin:round;stroke-miterlimit:13.4;stroke-dasharray:none"
       d="m -232.10042,93.43099 c -0.11696,9e-6 -0.2289,0.04909 -0.30797,0.135317 0,0 -0.37003,0.406266 -0.50068,1.030745 -0.0217,0.07549 -0.0367,0.152838 -0.0368,0.231439 v 4.66e-4 c -2e-5,0.396413 0.28217,0.735388 0.65419,0.82357 v 0.258503 h -0.30423 c -0.11889,0 -0.21464,0.09529 -0.21464,0.214175 v 1.104936 h -2.82394 c -0.37953,0 -0.68498,0.305458 -0.68498,0.684985 v 2.064759 h -9e-4 v 1.343835 c 0,0.37953 0.30592,0.68499 0.68545,0.68499 h 7.09576 c 0.37953,0 0.68498,-0.30546 0.68498,-0.68499 v -0.52027 h 4.7e-4 v -2.888324 c 0,-0.379527 -0.30593,-0.684985 -0.68545,-0.684985 h -2.78194 v -1.104936 c 0,-0.118883 -0.0958,-0.214175 -0.21464,-0.214175 h -0.30423 v -0.278101 c 0.33745,-0.111367 0.58516,-0.432409 0.58513,-0.803972 1e-5,-0.07928 -0.0144,-0.157187 -0.0364,-0.233305 -0.13097,-0.623493 -0.50161,-1.029345 -0.50161,-1.029345 -0.0791,-0.08614 -0.19054,-0.135299 -0.3075,-0.135317 z m 0,0.417617 c 0,0 0.30489,0.331964 0.40688,0.847833 0.014,0.04294 0.021,0.08782 0.021,0.132984 -4e-5,0.236295 -0.19158,0.427838 -0.42788,0.427883 -0.23629,-5.1e-5 -0.42784,-0.191591 -0.42789,-0.427883 -7e-5,-0.04466 0.007,-0.08906 0.0205,-0.131584 0.10173,-0.516676 0.40736,-0.849233 0.40736,-0.849233 z m -0.24544,2.459509 h 0.55993 c 0.0456,0 0.0816,0.03699 0.0816,0.08259 v 0.839434 h -0.72464 v -0.839434 c 0,-0.0456 0.0375,-0.08259 0.0831,-0.08259 z m -3.27048,1.324244 h 7.0589 c 0.17225,0 0.31123,0.138517 0.31123,0.310763 v 0.69945 c -0.15909,0.0054 -0.32348,0.01426 -0.49088,0.04433 -0.21444,0.03856 -0.41015,0.106049 -0.56787,0.148849 -0.15773,0.0428 -0.29123,0.06632 -0.45027,0.08492 -0.15906,0.0186 -0.33643,0.03078 -0.51514,0.02473 -0.1787,-0.0063 -0.36049,-0.03031 -0.55107,-0.07979 -0.19057,-0.04957 -0.40454,-0.129441 -0.6248,-0.185713 -0.22027,-0.05625 -0.43468,-0.08312 -0.65092,-0.08212 -0.21624,7.86e-4 -0.43514,0.02907 -0.66352,0.08352 -0.22839,0.05445 -0.45732,0.131798 -0.64393,0.178246 -0.1866,0.04641 -0.34384,0.06702 -0.50393,0.07839 -0.1601,0.01138 -0.3074,0.01312 -0.49321,-0.01307 -0.18577,-0.02619 -0.4182,-0.08312 -0.615,-0.138584 -0.19679,-0.05544 -0.37021,-0.115122 -0.56413,-0.137651 -0.12064,-0.01399 -0.23638,-0.01161 -0.34669,-0.0037 v -0.70178 c 0,-0.172246 0.13897,-0.310763 0.31123,-0.310763 z m 3.52105,1.361105 c 0.1836,-7.85e-4 0.36158,0.02113 0.55107,0.06953 0.18951,0.0484 0.40286,0.128994 0.62292,0.186178 0.22004,0.05716 0.43222,0.08505 0.63739,0.09192 0.20515,0.0072 0.40146,-0.006 0.5744,-0.02659 0.17294,-0.02023 0.33084,-0.04909 0.50768,-0.09705 0.17683,-0.04795 0.3596,-0.109952 0.53426,-0.141384 0.13247,-0.02384 0.2738,-0.03302 0.42136,-0.03826 v 0.942092 0.216969 0.39709 0.20951 0.14139 0.35088 c 0,0.17225 -0.13898,0.31077 -0.31123,0.31077 h -7.0589 c -0.17226,0 -0.31123,-0.13852 -0.31123,-0.31077 v -0.35088 -0.14139 -0.20718 -0.39522 -0.221169 -0.937892 c 0.10691,-0.0081 0.20735,-0.01084 0.30096,0 0.13809,0.01607 0.29583,0.06727 0.50254,0.125518 0.2067,0.05824 0.44958,0.118661 0.66726,0.149316 0.21763,0.0307 0.4012,0.02833 0.57673,0.01586 0.17553,-0.01246 0.35976,-0.03602 0.57113,-0.08866 0.21137,-0.05264 0.43754,-0.129499 0.64019,-0.177779 0.20266,-0.04831 0.38987,-0.07197 0.57347,-0.0728 z"
       inkscape:export-filename="favicon.png"
       inkscape:export-xdpi="96"
       inkscape:export-ydpi="96" /></g></svg>
