<?xml version="1.0" encoding="UTF-8" standalone="no"?>
<!-- Created with Inkscape (http://www.inkscape.org/) -->

<svg
   width="42.708858mm"
   height="23.138041mm"
   viewBox="0 0 42.708858 23.138041"
   version="1.1"
   id="svg55172"
   inkscape:version="1.2.1 (9c6d41e410, 2022-07-14)"
   sodipodi:docname="logo-tortones.svg"
   xmlns:inkscape="http://www.inkscape.org/namespaces/inkscape"
   xmlns:sodipodi="http://sodipodi.sourceforge.net/DTD/sodipodi-0.dtd"
   xmlns="http://www.w3.org/2000/svg"
   xmlns:svg="http://www.w3.org/2000/svg">
  <sodipodi:namedview
     id="namedview55174"
     pagecolor="#ffffff"
     bordercolor="#000000"
     borderopacity="0.25"
     inkscape:showpageshadow="2"
     inkscape:pageopacity="0.0"
     inkscape:pagecheckerboard="0"
     inkscape:deskcolor="#d1d1d1"
     inkscape:document-units="mm"
     showgrid="false"
     inkscape:zoom="1.1893044"
     inkscape:cx="129.06704"
     inkscape:cy="80.299039"
     inkscape:window-width="1920"
     inkscape:window-height="991"
     inkscape:window-x="-9"
     inkscape:window-y="-9"
     inkscape:window-maximized="1"
     inkscape:current-layer="layer1" />
  <defs
     id="defs55169" />
  <g
     inkscape:label="Capa 1"
     inkscape:groupmode="layer"
     id="layer1"
     transform="translate(153.49426,-197.33772)">
    <path
       id="path7322"
       style="font-size:19.868px;font-family:BodoniFLF;-inkscape-font-specification:BodoniFLF;fill:#fdcb2a;fill-opacity:1;stroke-width:0.510001;stroke-linecap:round;stroke-linejoin:round;stroke-miterlimit:13.4"
       d="m -134.38919,197.33777 c -0.12953,1e-5 -0.25327,0.0542 -0.34084,0.14969 0,0 -0.40994,0.45028 -0.55463,1.14188 -0.024,0.0836 -0.0408,0.16887 -0.041,0.25592 v 8.7e-4 c -3e-5,0.43902 0.31272,0.81412 0.72472,0.91178 v 0.28627 h -0.33722 c -0.13167,0 -0.23758,0.10591 -0.23758,0.23757 v 1.22341 h -3.12759 c -0.42033,0 -0.75869,0.33837 -0.75869,0.75869 v 4.08785 h -0.98176 v 1.01822 0.77386 0.77386 h 0.38455 v -0.80489 a 0.77388658,0.77388658 0 0 1 0.009,-0.10327 0.77388658,0.77388658 0 0 1 0.0349,-0.13045 0.77388658,0.77388658 0 0 1 0.0571,-0.12206 0.77388658,0.77388658 0 0 1 0.0772,-0.11052 0.77388658,0.77388658 0 0 1 0.0956,-0.0956 0.77388658,0.77388658 0 0 1 0.11052,-0.0772 0.77388658,0.77388658 0 0 1 0.12206,-0.0571 0.77388658,0.77388658 0 0 1 0.13046,-0.0349 0.77388658,0.77388658 0 0 1 0.13429,-0.0118 h 3.81631 v 11.69167 a 0.96915186,0.96915186 0 0 1 -0.96931,0.96908 h -0.56278 v 0.40516 h 4.48122 v -0.40516 h -0.53606 a 0.96915186,0.96915186 0 0 1 -0.96908,-0.96908 v -11.69169 h 3.9454 v 0.0118 a 0.77388658,0.77388658 0 0 1 0.13044,0.0349 0.77388658,0.77388658 0 0 1 0.12207,0.0571 0.77388658,0.77388658 0 0 1 0.11052,0.0772 0.77388658,0.77388658 0 0 1 0.0956,0.0956 0.77388658,0.77388658 0 0 1 0.0772,0.11052 0.77388658,0.77388658 0 0 1 0.0571,0.12207 0.77388658,0.77388658 0 0 1 0.0349,0.13045 0.77388658,0.77388658 0 0 1 0.0118,0.1343 v 0.77386 h 0.38433 v -0.77386 h 2.2e-4 v -1.79209 h -2.2e-4 -0.38433 -0.64341 v -4.08784 c 0,-0.42032 -0.33859,-0.75869 -0.75891,-0.75869 h -3.08117 v -1.22341 c 0,-0.13166 -0.10591,-0.23757 -0.23757,-0.23757 h -0.33722 v -0.30801 c 0.37372,-0.12334 0.64843,-0.47854 0.64839,-0.89004 2e-5,-0.0878 -0.016,-0.17411 -0.0403,-0.25841 -0.14504,-0.69051 -0.55554,-1.14029 -0.55554,-1.14029 -0.0876,-0.0954 -0.21109,-0.14968 -0.34062,-0.1497 z m 0,0.46223 c 0,0 0.33772,0.36809 0.45068,0.93941 a 0.47397106,0.47397106 0 0 1 0.0233,0.14698 0.47397106,0.47397106 0 0 1 -0.47401,0.47401 0.47397106,0.47397106 0 0 1 -0.474,-0.47401 0.47397106,0.47397106 0 0 1 0.0231,-0.14539 c 0.11266,-0.57221 0.45091,-0.941 0.45091,-0.941 z m -0.27199,2.72425 h 0.62031 c 0.0505,0 0.091,0.0408 0.091,0.0913 v 0.92968 h -0.80262 v -0.92968 c 0,-0.0505 0.0408,-0.0913 0.0913,-0.0913 z m -3.62199,1.46642 h 7.81786 c 0.19077,0 0.34446,0.15348 0.34446,0.34424 v 0.77432 c -0.17618,0.006 -0.35813,0.0158 -0.54353,0.0491 -0.2375,0.0427 -0.45447,0.11769 -0.62914,0.16509 -0.17469,0.0474 -0.32209,0.0736 -0.49824,0.0942 -0.17615,0.0206 -0.37302,0.0341 -0.57094,0.0274 -0.19791,-0.007 -0.39905,-0.0335 -0.61012,-0.0883 -0.21105,-0.0549 -0.44772,-0.14377 -0.69165,-0.20609 -0.24395,-0.0623 -0.48138,-0.0919 -0.72087,-0.0908 -0.2395,8.7e-4 -0.48221,0.0321 -0.73513,0.0924 -0.25294,0.0603 -0.5065,0.14627 -0.71316,0.19771 -0.20666,0.0514 -0.38073,0.0739 -0.55803,0.0865 -0.17731,0.0126 -0.34025,0.0145 -0.54603,-0.0145 -0.20574,-0.029 -0.46351,-0.0919 -0.68146,-0.15332 -0.21794,-0.0614 -0.41008,-0.12747 -0.62484,-0.15242 -0.1336,-0.0155 -0.26148,-0.0127 -0.38365,-0.004 v -0.77726 c 0,-0.19076 0.1537,-0.34424 0.34447,-0.34424 z m 3.89965,1.50741 c 0.20334,-8.7e-4 0.40049,0.0234 0.61034,0.077 0.20988,0.0536 0.44613,0.14299 0.68984,0.20632 0.24369,0.0633 0.47892,0.0943 0.70614,0.10191 0.2272,0.008 0.44441,-0.007 0.63594,-0.0299 0.19152,-0.0224 0.36649,-0.054 0.56233,-0.10712 0.19584,-0.0531 0.39811,-0.12191 0.59155,-0.15672 0.1467,-0.0264 0.30311,-0.0365 0.46653,-0.0423 v 2.84451 h -8.50679 v -2.83976 c 0.1184,-0.009 0.22948,-0.012 0.33315,0 0.15293,0.0178 0.32751,0.0741 0.55644,0.13861 0.22892,0.0645 0.49836,0.13137 0.73944,0.16532 0.24102,0.034 0.44425,0.0317 0.63865,0.0179 0.1944,-0.0138 0.39845,-0.04 0.63254,-0.0983 0.23408,-0.0583 0.48421,-0.14356 0.70864,-0.19703 0.22444,-0.0535 0.43193,-0.0795 0.63526,-0.0804 z m 23.23231,10.28438 c -0.029,0 -0.0609,0.0233 -0.0958,0.0698 l -0.25253,0.32228 c -0.10448,-0.058 -0.20312,-0.11051 -0.296,-0.15695 -0.0929,-0.0464 -0.18871,-0.084 -0.28739,-0.11301 -0.0929,-0.029 -0.19432,-0.0493 -0.3046,-0.0609 -0.10449,-0.0174 -0.22644,-0.0263 -0.36576,-0.0263 -0.28443,0 -0.53977,0.0464 -0.76616,0.13928 -0.22058,0.0929 -0.40922,0.21786 -0.56596,0.37459 -0.15673,0.15673 -0.27588,0.33652 -0.35714,0.53968 -0.0813,0.20317 -0.12185,0.41794 -0.12185,0.64432 0,0.30766 0.0928,0.58933 0.27857,0.84475 0.19156,0.25541 0.4877,0.44988 0.88822,0.58339 0.19156,0.0639 0.35409,0.11609 0.4876,0.15672 0.13352,0.0406 0.25827,0.0812 0.37436,0.12184 0.1161,0.0348 0.23222,0.0754 0.34832,0.12185 0.1219,0.0406 0.26111,0.0987 0.41784,0.17416 0.19736,0.0929 0.33097,0.22345 0.40063,0.3918 0.0697,0.16253 0.10441,0.32809 0.10441,0.49642 0,0.20898 -0.0406,0.40043 -0.12185,0.57457 -0.0813,0.16834 -0.18853,0.31058 -0.32204,0.42667 -0.13351,0.1161 -0.28741,0.20611 -0.46155,0.26996 -0.17415,0.0639 -0.35113,0.0958 -0.53108,0.0958 -0.20897,0 -0.40928,-0.0348 -0.60084,-0.1044 -0.19156,-0.0755 -0.36854,-0.18016 -0.53108,-0.31367 -0.16253,-0.13351 -0.30477,-0.29884 -0.42667,-0.4962 -0.1161,-0.19736 -0.20611,-0.41796 -0.26996,-0.66176 -0.0174,-0.0755 -0.0494,-0.11323 -0.0958,-0.11323 -0.0406,0 -0.0609,0.0406 -0.0609,0.12184 v 1.55859 c 0,0.0755 0.0261,0.11323 0.0784,0.11323 0.0349,0 0.0726,-0.0289 0.11324,-0.087 l 0.31344,-0.45272 c 0.0697,0.0639 0.15383,0.13055 0.25251,0.20021 0.10449,0.0697 0.21759,0.13355 0.33949,0.1916 0.1277,0.0581 0.26132,0.10445 0.40063,0.13928 0.14512,0.0406 0.29296,0.0609 0.44388,0.0609 0.27864,0 0.53701,-0.0522 0.775,-0.15672 0.238,-0.0987 0.44413,-0.23812 0.61827,-0.41807 0.17415,-0.17995 0.31056,-0.39168 0.40924,-0.63548 0.10448,-0.24961 0.15672,-0.5166 0.15672,-0.80104 0,-0.38892 -0.0928,-0.71701 -0.27856,-0.98403 -0.17995,-0.27282 -0.46746,-0.4673 -0.86219,-0.58339 -0.13351,-0.0406 -0.25826,-0.0754 -0.37436,-0.1044 -0.11609,-0.029 -0.23502,-0.061 -0.35692,-0.0958 -0.1219,-0.0348 -0.24968,-0.0726 -0.3832,-0.11324 -0.1335,-0.0464 -0.28157,-0.10148 -0.4441,-0.16533 -0.17996,-0.0697 -0.31637,-0.17715 -0.40925,-0.32227 -0.0929,-0.14512 -0.13928,-0.31348 -0.13928,-0.50504 0,-0.17995 0.0377,-0.33665 0.11324,-0.47016 0.0755,-0.13931 0.1713,-0.25241 0.28739,-0.33948 0.12191,-0.0871 0.25831,-0.15096 0.40924,-0.1916 0.15673,-0.0464 0.31344,-0.0698 0.47016,-0.0698 0.238,0 0.44693,0.0408 0.62688,0.12207 0.17995,0.0813 0.33082,0.18854 0.45272,0.32205 0.1219,0.13351 0.21773,0.28741 0.28739,0.46155 0.0755,0.17415 0.12489,0.35393 0.14812,0.53969 0.006,0.058 0.0319,0.0872 0.0784,0.0872 0.0406,0 0.0609,-0.0291 0.0609,-0.0872 v -1.54976 c 0,-0.058 -0.0175,-0.0872 -0.0523,-0.0872 z m -34.17574,0.0349 c -0.3715,0 -0.72267,0.0842 -1.05355,0.25251 -0.32507,0.16834 -0.60955,0.39476 -0.85335,0.6792 -0.2438,0.27862 -0.43828,0.60368 -0.5834,0.97519 -0.13931,0.3657 -0.20881,0.74602 -0.20881,1.14075 0,0.39472 0.0695,0.77784 0.20881,1.14935 0.14512,0.3657 0.3396,0.69076 0.5834,0.97519 0.2438,0.28444 0.52828,0.51366 0.85335,0.6878 0.33088,0.16834 0.68205,0.25252 1.05355,0.25252 0.37151,0 0.71988,-0.0842 1.04495,-0.25252 0.33087,-0.17414 0.61816,-0.40336 0.86196,-0.6878 0.24381,-0.28443 0.43524,-0.60949 0.57456,-0.97519 0.14512,-0.37151 0.21787,-0.75463 0.21787,-1.14935 0,-0.39473 -0.0728,-0.77505 -0.21787,-1.14075 -0.13932,-0.37151 -0.33075,-0.69657 -0.57456,-0.97519 -0.2438,-0.28444 -0.53109,-0.51086 -0.86196,-0.6792 -0.32507,-0.16833 -0.67344,-0.25251 -1.04495,-0.25251 z m 16.4653,0 c -0.37151,0 -0.72268,0.0842 -1.05355,0.25251 -0.32508,0.16834 -0.60956,0.39476 -0.85336,0.6792 -0.2438,0.27862 -0.43827,0.60368 -0.5834,0.97519 -0.13931,0.3657 -0.2088,0.74602 -0.2088,1.14075 0,0.39472 0.0695,0.77784 0.2088,1.14935 0.14513,0.3657 0.3396,0.69076 0.5834,0.97519 0.2438,0.28444 0.52828,0.51366 0.85336,0.6878 0.33087,0.16834 0.68204,0.25252 1.05355,0.25252 0.37151,0 0.71988,-0.0842 1.04494,-0.25252 0.33088,-0.17414 0.61817,-0.40336 0.86197,-0.6878 0.2438,-0.28443 0.43547,-0.60949 0.57478,-0.97519 0.14513,-0.37151 0.21764,-0.75463 0.21764,-1.14935 0,-0.39473 -0.0725,-0.77505 -0.21764,-1.14075 -0.13931,-0.37151 -0.33098,-0.69657 -0.57478,-0.97519 -0.2438,-0.28444 -0.53109,-0.51086 -0.86197,-0.6792 -0.32506,-0.16833 -0.67343,-0.25251 -1.04494,-0.25251 z m -24.32777,0.0958 c -0.11029,0 -0.16836,0.0494 -0.17416,0.14811 l -0.13068,1.51488 h 0.18277 c 0.0639,-0.47019 0.19443,-0.84165 0.39179,-1.11448 0.20318,-0.27282 0.43845,-0.40923 0.70547,-0.40923 h 0.74872 v 5.5726 h -0.74872 v 0.13928 h 2.34219 v -0.13928 h -0.74895 v -5.5726 h 0.74895 c 0.26702,0 0.49927,0.13641 0.69663,0.40923 0.20317,0.27283 0.33656,0.64429 0.40041,1.11448 h 0.18298 l -0.13067,-1.51488 c -0.006,-0.0987 -0.0639,-0.14811 -0.17416,-0.14811 z m 11.11033,0 v 0.13928 h 0.74872 v 5.5726 h -0.74872 v 0.13928 h 2.34219 v -0.13928 h -0.74872 v -2.84722 h 0.72267 c 0.0929,0 0.19152,0.0175 0.296,0.0523 0.10449,0.029 0.20033,0.0899 0.2874,0.18276 0.0929,0.0871 0.17122,0.21183 0.23508,0.37436 0.0697,0.15673 0.11886,0.36007 0.14788,0.60967 0.0174,0.15092 0.0263,0.3046 0.0263,0.46132 0.006,0.15674 0.0145,0.30783 0.026,0.45295 0.0174,0.14512 0.0435,0.27851 0.0784,0.40041 0.0407,0.1219 0.1015,0.22636 0.18276,0.31344 0.0755,0.0813 0.16267,0.13652 0.26135,0.16555 0.10449,0.029 0.21478,0.0435 0.33088,0.0435 0.0987,0 0.19731,-0.0117 0.296,-0.0349 0.0987,-0.0174 0.18869,-0.0405 0.26996,-0.0695 0.0871,-0.029 0.15959,-0.0582 0.21764,-0.0872 0.0639,-0.0348 0.11025,-0.0668 0.13928,-0.0958 0.0174,-0.0174 0.0262,-0.0347 0.0262,-0.0521 0,-0.0174 -0.009,-0.0263 -0.0262,-0.0263 -0.0116,0 -0.0289,0.006 -0.0521,0.0174 -0.11609,0.0813 -0.2469,0.12184 -0.39203,0.12184 -0.17994,0 -0.29584,-0.0725 -0.34809,-0.21764 h -2.2e-4 c -0.0174,-0.0581 -0.0319,-0.1392 -0.0435,-0.24368 -0.006,-0.10449 -0.0114,-0.21781 -0.0172,-0.33972 0,-0.12189 -0.003,-0.24665 -0.009,-0.37436 0,-0.1277 -0.009,-0.24965 -0.026,-0.36575 -0.0349,-0.23219 -0.0929,-0.42364 -0.17417,-0.57456 -0.0813,-0.15093 -0.1799,-0.27288 -0.296,-0.36576 -0.11609,-0.0987 -0.2497,-0.17422 -0.40063,-0.22647 -0.15092,-0.0581 -0.31345,-0.11028 -0.48759,-0.15672 0.45277,-0.0813 0.80114,-0.24077 1.04494,-0.47876 0.2438,-0.24381 0.36553,-0.54858 0.36553,-0.91428 0,-0.22638 -0.0492,-0.42949 -0.14789,-0.60944 -0.0929,-0.17995 -0.22065,-0.33104 -0.38319,-0.45294 -0.16253,-0.1219 -0.357,-0.21471 -0.58339,-0.27856 -0.22059,-0.0639 -0.45563,-0.0958 -0.70524,-0.0958 z m 16.42181,0 v 0.13928 h 0.74872 v 5.5726 h -0.74872 v 0.13928 h 1.63695 v -0.13928 h -0.74895 v -5.32009 l 3.3697,5.52913 h 0.296 v -5.78164 h 0.74895 v -0.13928 h -1.63695 v 0.13928 h 0.74872 v 4.27536 l -2.69911,-4.41464 z m 5.7728,0 v 0.13928 h 0.74872 v 5.5726 h -0.74011 v 0.13928 h 4.09238 c 0.16834,0 0.25252,-0.0928 0.25252,-0.27856 v -1.30607 c 0,-0.13932 -0.0231,-0.20904 -0.0695,-0.20904 -0.0406,0 -0.0726,0.0611 -0.0958,0.18299 -0.0465,0.22059 -0.0959,0.42089 -0.14811,0.60084 -0.0523,0.17995 -0.12174,0.33664 -0.20882,0.47015 -0.0871,0.12771 -0.19736,0.22635 -0.33087,0.296 -0.13351,0.0697 -0.30187,0.10441 -0.50503,0.10441 h -1.40187 v -2.87327 h 0.68779 c 0.12771,0 0.22938,0.0203 0.30484,0.0609 0.0755,0.0348 0.13352,0.0871 0.17415,0.15672 0.0465,0.0697 0.0812,0.15384 0.10441,0.25252 0.0232,0.0987 0.0466,0.20898 0.0698,0.33088 0.0174,0.0813 0.0405,0.12184 0.0695,0.12184 0.0348,0 0.0523,-0.0378 0.0523,-0.11324 V 215.794 c 0,-0.0697 -0.0175,-0.10464 -0.0523,-0.10464 -0.029,0 -0.0521,0.0408 -0.0695,0.12207 -0.0232,0.1219 -0.0466,0.2322 -0.0698,0.33088 -0.0232,0.0987 -0.058,0.18286 -0.10441,0.25252 -0.0407,0.0697 -0.0987,0.12469 -0.17415,0.16532 -0.0755,0.0348 -0.17713,0.0523 -0.30484,0.0523 h -0.68779 v -2.56005 h 1.32351 c 0.19736,0 0.36269,0.0494 0.4962,0.14811 0.13351,0.0929 0.241,0.21181 0.32227,0.35692 0.0813,0.13932 0.13933,0.29019 0.17415,0.45273 0.0407,0.15673 0.0637,0.29897 0.0695,0.42667 0,0.0813 0.0233,0.12207 0.0697,0.12207 0.0406,0 0.0609,-0.0378 0.0609,-0.11324 v -1.32351 c 0,-0.13931 -0.0725,-0.20903 -0.21764,-0.20903 z m -25.44247,0.0609 c 0.26122,0 0.49347,0.0408 0.69664,0.12208 0.20316,0.0813 0.37152,0.21767 0.50504,0.40923 0.1393,0.19156 0.24377,0.44387 0.31343,0.75733 0.0755,0.31346 0.11324,0.70241 0.11324,1.16679 v 0.87079 c 0,0.8417 -0.13944,1.46569 -0.41807,1.87203 -0.27863,0.40053 -0.68204,0.60083 -1.21028,0.60083 -0.52824,0 -0.93164,-0.2003 -1.21027,-0.60083 -0.27863,-0.40634 -0.41784,-1.03033 -0.41784,-1.87203 v -0.87079 c 0,-0.45278 0.0347,-0.83286 0.1044,-1.14052 0.0755,-0.31346 0.17993,-0.566 0.31344,-0.75755 0.13931,-0.19737 0.31047,-0.33961 0.51364,-0.42668 0.20317,-0.0871 0.43542,-0.13067 0.69663,-0.13068 z m 16.4653,0 c 0.26122,0 0.49346,0.0408 0.69663,0.12208 0.20317,0.0813 0.37153,0.21767 0.50503,0.40923 0.13932,0.19156 0.24379,0.44387 0.31344,0.75733 0.0755,0.31346 0.11324,0.70241 0.11324,1.16679 v 0.87079 c 0,0.8417 -0.13943,1.46569 -0.41807,1.87203 -0.27862,0.40053 -0.68203,0.60083 -1.21027,0.60083 -0.52824,0 -0.93165,-0.2003 -1.21027,-0.60083 -0.27864,-0.40634 -0.41785,-1.03033 -0.41785,-1.87203 v -0.87079 c 0,-0.45278 0.0347,-0.83286 0.10441,-1.14052 0.0755,-0.31346 0.17992,-0.566 0.31344,-0.75755 0.13931,-0.19737 0.31047,-0.33961 0.51364,-0.42668 0.20316,-0.0871 0.43541,-0.13067 0.69663,-0.13068 z m -11.62397,0.0784 h 0.86195 c 0.66175,0 0.99264,0.38032 0.99264,1.14075 v 0.31344 c 0,0.75463 -0.33089,1.13191 -0.99264,1.13191 h -0.86195 z" />
  </g>
</svg>
