<svg width="420.28" height="322.36" viewBox="0 0 111.2 85.29" xmlns="http://www.w3.org/2000/svg"><g style="fill:#4c2f27;fill-opacity:1;stroke-width:.673066"><path d="M0 0c-3.3-.99-8.48-4.13-8.06-6.17-4.67-6.48-5.78-14.88-5.57-22.85.4-14.99-1.03-15.32-1.86-23.26-1.14-10.93-8.6-15.16-6.45-25.94 1.68-8.38 8.28-15.92 16.7-17.45 8.4-1.54 20.65 1.82 22.29 10.21 1.22 6.25 4.52 20.13 2.19 26.06-5.15 13.07-1.33 22.65-1.65 36.69-.17 7.09-4.55 3.01-4.41 11.56.33 2.15-6.5 7.4-7.77 9.4C3.81.8 2.42.73 0 0" style="fill:#4c2f27;fill-opacity:1;fill-rule:nonzero;stroke:none;stroke-width:.673066" transform="matrix(.46306 0 0 -.59327 23.08 5.3)"/></g><g style="stroke-width:.761607"><path d="M0 0h-156.07s3.98 37.2 13.94 45.16c2 1.61 6.09 4.4 11.29 7.82l4.54 2.95c12.7-5.45 29.24-8.62 46.8-8.62h3.24c17.55 0 34.09 3.17 46.8 8.62-.3.18 4.79-3.32 6.38-4.38 4.16-2.76 7.41-5 9.13-6.38C-3.99 37.19 0 0 0 0" style="fill:#ea8b82;fill-opacity:1;fill-rule:nonzero;stroke:none;stroke-width:.761607" transform="matrix(.46306 0 0 -.46335 72.62 83.78)"/></g><g style="stroke-width:.761607"><path d="M0 0h-156.07s3.98 37.2 13.94 45.16c2 1.61 6.09 4.4 11.29 7.82l4.54 2.95c12.7-5.45 29.24-8.62 46.8-8.62h3.24c17.55 0 34.09 3.17 46.8 8.62-.3.18 4.79-3.32 6.38-4.38 4.16-2.76 7.41-5 9.13-6.38C-3.99 37.19 0 0 0 0Z" style="fill:none;stroke:#4c2f27;stroke-width:1.5156;stroke-linecap:round;stroke-linejoin:round;stroke-miterlimit:10;stroke-dasharray:none;stroke-opacity:1" transform="matrix(.46306 0 0 -.46335 72.62 83.78)"/></g><g style="stroke-width:.73135"><path d="M0 0c.53 2.54-1.28 5.1-3.64 6.42C-6 7.74-8.81 8.08-11.53 8.4c-4.54.5-9.12 1-13.43 2.46-4.3 1.45-8.37 3.97-10.72 7.68-1.6 2.53-2.32 5.46-3.65 8.13-1.32 2.67-3.54 5.25-6.6 5.77-3.07.52-6.65-2.11-5.84-4.96-3.94 10.29 1.84 24.3 12.75 27.91 7.74 2.56 16.41.82 23.83-2.49 17.31-7.72 29.9-24.23 32.17-42.21.87-6.84.35-13.87 2.26-20.5 2.01-7.03 6.58-13.12 9.57-19.81 3-6.7 4.2-14.96-.29-20.86-3.63-4.78-10.2-6.85-16.42-7a35.85 35.85 0 0 0-19.82 5.47c-6.78 4.3-6.37 15.33-4.34 22.82 1.39 5.1 5.26 9.18 8.4 13.52C-.5-11.34-1.05-5.17 0 0" style="fill:#4c2f27;fill-opacity:1;fill-rule:nonzero;stroke:none;stroke-width:.73135" transform="matrix(.46306 0 0 -.50248 49.08 28.95)"/></g><g style="stroke-width:.761607"><path d="M0 0c-8.08 3.77-9.77 7.98-9.78 7.99-3.05 5.88-1.34 16.3-1.34 16.3h-34.12s1.72-10.42-1.34-16.3c0 0-1.7-4.22-9.78-7.99-4.34-2.03-19.35-10.6-20.29-11.2 12.7-5.46 29.2-8.62 46.74-8.62h3.46c17.54 0 34.05 3.16 46.74 8.61C19.35-10.6 4.34-2.03 0 0" style="fill:#fff5eb;fill-opacity:1;fill-rule:nonzero;stroke:none;stroke-width:.761607" transform="matrix(.46306 0 0 -.46335 49.69 52.68)"/></g><g style="stroke-width:.761607"><path d="M0 0c-8.08 3.77-9.77 7.98-9.78 7.99-3.05 5.88-1.34 16.3-1.34 16.3h-34.12s1.72-10.42-1.34-16.3c0 0-1.7-4.22-9.78-7.99-4.34-2.03-19.35-10.6-20.29-11.2 12.7-5.46 29.2-8.62 46.74-8.62h3.46c17.54 0 34.05 3.16 46.74 8.61C19.35-10.6 4.34-2.03 0 0Z" style="fill:none;stroke:#4c2f27;stroke-width:1.51484;stroke-linecap:round;stroke-linejoin:round;stroke-miterlimit:10;stroke-dasharray:none;stroke-opacity:1" transform="matrix(.46306 0 0 -.46335 49.69 52.68)"/></g><g style="stroke-width:.761607"><path d="M0 0c-.37 2.2-2.64 3.8-4.86 3.69a6.02 6.02 0 0 1-5.05-3.8A8.3 8.3 0 0 1-9.6-6.6c.93-2.03 2.5-3.7 4.28-5.04 1.15-.86 2.47-1.62 3.9-1.61 1.43 0 2.94 1.03 3.02 2.47C1.48-10.63 0 0 0 0" style="fill:#fff5eb;fill-opacity:1;fill-rule:nonzero;stroke:none;stroke-width:.761607" transform="matrix(.46306 0 0 -.46335 22.96 27)"/></g><g style="stroke-width:.761607"><path d="M0 0c-.37 2.2-2.64 3.8-4.86 3.69a6.02 6.02 0 0 1-5.05-3.8A8.3 8.3 0 0 1-9.6-6.6c.93-2.03 2.5-3.7 4.28-5.04 1.15-.86 2.47-1.62 3.9-1.61 1.43 0 2.94 1.03 3.02 2.47C1.48-10.63 0 0 0 0Z" style="fill:none;stroke:#4c2f27;stroke-width:1.5156;stroke-linecap:round;stroke-linejoin:round;stroke-miterlimit:10;stroke-dasharray:none;stroke-opacity:1" transform="matrix(.46306 0 0 -.46335 22.96 27)"/></g><g style="stroke-width:.761607"><path d="M0 0c2-.11 3.88-1.52 4.55-3.42-.55-.94-1.19-2.17-1.2-3.26-.01-1.1.74-2.27 1.83-2.33" style="fill:#fff;fill-opacity:1;fill-rule:nonzero;stroke:#4c2f27;stroke-width:1.5156;stroke-linecap:round;stroke-linejoin:round;stroke-miterlimit:10;stroke-dasharray:none;stroke-opacity:1" transform="matrix(.46306 0 0 -.46335 20.31 26.83)"/></g><g style="stroke-width:.761607"><path d="M0 0c.37 2.2 2.64 3.8 4.86 3.69A6.02 6.02 0 0 0 9.9-.11a8.3 8.3 0 0 0-.3-6.49 13.5 13.5 0 0 0-4.27-5.04c-1.15-.86-2.47-1.62-3.9-1.61-1.44 0-2.94 1.03-3.02 2.47C-1.48-10.63 0 0 0 0" style="fill:#fff5eb;fill-opacity:1;fill-rule:nonzero;stroke:none;stroke-width:.761607" transform="matrix(.46306 0 0 -.46335 50.07 27.07)"/></g><g style="stroke-width:.761607"><path d="M0 0c.37 2.2 2.64 3.8 4.86 3.69A6.02 6.02 0 0 0 9.9-.11a8.3 8.3 0 0 0-.3-6.49 13.5 13.5 0 0 0-4.27-5.04c-1.15-.86-2.47-1.62-3.9-1.61-1.44 0-2.94 1.03-3.02 2.47C-1.48-10.63 0 0 0 0Z" style="fill:none;stroke:#4c2f27;stroke-width:1.5156;stroke-linecap:round;stroke-linejoin:round;stroke-miterlimit:10;stroke-dasharray:none;stroke-opacity:1" transform="matrix(.46306 0 0 -.46335 50.07 27.07)"/></g><g style="stroke-width:.761607"><path d="M0 0a5.24 5.24 0 0 1-4.54-3.42c.54-.94 1.18-2.17 1.19-3.26.01-1.1-.74-2.27-1.83-2.33" style="fill:#fff;fill-opacity:1;fill-rule:nonzero;stroke:#4c2f27;stroke-width:1.5156;stroke-linecap:round;stroke-linejoin:round;stroke-miterlimit:10;stroke-dasharray:none;stroke-opacity:1" transform="matrix(.46306 0 0 -.46335 52.72 26.9)"/></g><g style="stroke-width:.761607"><path d="M0 0a35.02 35.02 0 0 0-1.8-11.15l-.6-1.62-.04-.14-7.02-19.3a41.57 41.57 0 0 0-10.33-15.83 20.5 20.5 0 0 0-13.7-5.7l-1.7-.03-1.7.04a20.57 20.57 0 0 0-13.69 5.7A41.65 41.65 0 0 0-60.94-32.2l-7.19 19.76-.37 1.03-.04.12c-.13.4-.26.78-.37 1.18A35.18 35.18 0 1 0 0 0" style="fill:#fff;fill-opacity:1;fill-rule:nonzero;stroke:none;stroke-width:.761607" transform="matrix(.46306 0 0 -.46335 52.82 20.75)"/></g><g style="stroke-width:.761607"><path d="M0 0a35.02 35.02 0 0 0-1.8-11.15l-.6-1.62-.04-.14-7.02-19.3a41.57 41.57 0 0 0-10.33-15.83 20.5 20.5 0 0 0-13.7-5.7h0l-1.7-.03-1.7.04a20.57 20.57 0 0 0-13.69 5.7h0A41.65 41.65 0 0 0-60.94-32.2l-7.19 19.76-.37 1.03-.04.12c-.13.4-.26.78-.37 1.18A35.18 35.18 0 1 0 0 0Z" style="fill:#fff5eb;fill-opacity:1;stroke:#4c2f27;stroke-width:1.5156;stroke-linecap:round;stroke-linejoin:round;stroke-miterlimit:10;stroke-dasharray:none;stroke-opacity:1" transform="matrix(.46306 0 0 -.46335 52.82 20.75)"/></g><g style="stroke-width:.761607"><path d="M0 0a36.24 36.24 0 0 0-6.54-5.83c-3-2.1-5.47-10.57-8.08-16.14.35 2.46-4.07 16.58-12.19 18.4-4.22.95-8.64 1.01-12.72 2.47C-43.6.35-49.7 3.38-53.12 12.65c-1.63 4.44-8.68 6.86-11.94 4.12l-2.04 14.19c2.2 5.27 9.08 10.65 14.27 12.47 7.32 2.56 15.53.82 22.55-2.48C-14.28 33.4-2.56 17.48 0 0" style="fill:#4c2f27;fill-opacity:1;fill-rule:nonzero;stroke:none;stroke-width:.761607" transform="matrix(.46306 0 0 -.46335 56.65 21.2)"/></g><g style="stroke-width:.761607"><path d="m0 0-.37-1.03c.1.34.22.68.31 1.03Z" style="fill:#fff;fill-opacity:1;fill-rule:nonzero;stroke:none;stroke-width:.761607" transform="matrix(.46306 0 0 -.46335 52.16 24.33)"/></g><g style="stroke-width:.761607"><path d="m0 0-.37-1.03c.1.34.22.68.31 1.03Z" style="fill:none;stroke:#4c2f27;stroke-width:1.5156;stroke-linecap:round;stroke-linejoin:round;stroke-miterlimit:10;stroke-dasharray:none;stroke-opacity:1" transform="matrix(.46306 0 0 -.46335 52.16 24.33)"/></g><g style="stroke-width:.761607"><path d="m0 0-.07-.3A2.37 2.37 0 0 0-2-2.13c-.73-.1-1.53.15-2.19.8-.4.4-.62.66-.36.53 1.13-.53 2.6 0 3.78.6z" style="fill:#4c2f27;fill-opacity:1;fill-rule:nonzero;stroke:none;stroke-width:.761607" transform="matrix(.46306 0 0 -.46335 30.07 24.62)"/></g><g style="stroke-width:.761607"><path d="M0 0a2.34 2.34 0 1 1 4.68 0A2.34 2.34 0 0 1 0 0" style="fill:#4c2f27;fill-opacity:1;fill-rule:nonzero;stroke:none;stroke-width:.761607" transform="matrix(.46306 0 0 -.46335 29.09 25.68)"/></g><g style="stroke-width:.761607"><path d="m0 0 .08-.24a2.5 2.5 0 0 1 2-1.59c.72-.1 1.51.07 2.14.57.38.32.59.52.33.43-1.1-.4-2.58.1-3.77.64z" style="fill:#4c2f27;fill-opacity:1;fill-rule:nonzero;stroke:none;stroke-width:.761607" transform="matrix(.46306 0 0 -.46335 42.24 24.6)"/></g><g style="stroke-width:.761607"><path d="M0 0a2.34 2.34 0 1 0-4.68 0A2.34 2.34 0 0 0 0 0" style="fill:#4c2f27;fill-opacity:1;fill-rule:nonzero;stroke:none;stroke-width:.761607" transform="matrix(.46306 0 0 -.46335 43.22 25.68)"/></g><g style="stroke-width:.761607"><path d="m0 0 .77.61a9.08 9.08 0 0 0 6.74 1.95c1.71-.22 3.38-.78 4.91-1.67" style="fill:none;stroke:#4c2f27;stroke-width:1.5156;stroke-linecap:round;stroke-linejoin:round;stroke-miterlimit:10;stroke-dasharray:none;stroke-opacity:1" transform="matrix(.46306 0 0 -.46335 26.84 22.67)"/></g><g style="stroke-width:.761607"><path d="M0 0a9.08 9.08 0 0 0-6.74-1.95c-1.71.22-3.38.78-4.91 1.67" style="fill:none;stroke:#4c2f27;stroke-width:1.5156;stroke-linecap:round;stroke-linejoin:round;stroke-miterlimit:10;stroke-dasharray:none;stroke-opacity:1" transform="matrix(.46306 0 0 -.46335 38.85 37.74)"/></g><g style="stroke-width:.761607"><path d="M0 0c-.48-1.44-1.97-2.47-3.02-3.04a2.27 2.27 0 0 0-2.21 0c-1.05.57-2.53 1.6-3.01 3.04.01-.01 2.77-.93 4.1-.94C-2.75-.96-.03-.01 0 0" style="fill:#4c2f27;fill-opacity:1;fill-rule:nonzero;stroke:none;stroke-width:.761607" transform="matrix(.46306 0 0 -.46335 38.06 33.15)"/></g><g style="stroke-width:.761607"><path d="m0 0-.77.61a9.08 9.08 0 0 1-6.74 1.95A12.95 12.95 0 0 1-12.42.89" style="fill:none;stroke:#4c2f27;stroke-width:1.5156;stroke-linecap:round;stroke-linejoin:round;stroke-miterlimit:10;stroke-dasharray:none;stroke-opacity:1" transform="matrix(.46306 0 0 -.46335 45.47 22.67)"/></g><g style="stroke-width:.761607"><path d="m0 0-.77.61a9.08 9.08 0 0 1-6.74 1.95A12.95 12.95 0 0 1-12.42.89" style="fill:none;stroke:#4c2f27;stroke-width:1.5156;stroke-linecap:round;stroke-linejoin:round;stroke-miterlimit:10;stroke-dasharray:none;stroke-opacity:1" transform="matrix(.46306 0 0 -.46335 45.47 22.67)"/></g><g style="stroke-width:.761607"><path d="m0 0 .04-13.8c-3.46-1.05-4.9-9.15-4.9-15.26 0-2.08-.9-4.03-2.42-5.36l.73-15.96-4.02 12.6c.15.7-3.51-.51-4.68-1.64a57.45 57.45 0 0 0-2.93 26.9c.36 2.7 1.04 5.37 2.25 7.82C-11.78 3.7-5.37 4.71 0 0" style="fill:#4c2f27;fill-opacity:1;fill-rule:nonzero;stroke:none;stroke-width:.761607" transform="matrix(.46306 0 0 -.46335 25.98 7.37)"/></g><g style="stroke-width:.761607"><path d="M0 0h-156.07s3.98 37.2 13.94 45.17c4.43 3.54 19.1 12.95 33.3 21.86a57.92 57.92 0 0 0 61.6 0c14.18-8.91 28.85-18.32 33.28-21.86C-3.98 37.2 0 0 0 0" style="fill:#4c2f27;fill-opacity:1;fill-rule:nonzero;stroke:none;stroke-width:.761607" transform="matrix(.46306 0 0 -.46335 110.81 84.94)"/></g><g style="stroke-width:.761607"><path d="M0 0h-156.07s3.98 37.2 13.94 45.17c4.43 3.54 19.1 12.95 33.3 21.86a57.92 57.92 0 0 0 61.6 0c14.18-8.91 28.85-18.32 33.28-21.86C-3.98 37.2 0 0 0 0Z" style="fill:none;stroke:#4c2f27;stroke-width:1.5156;stroke-linecap:butt;stroke-linejoin:miter;stroke-miterlimit:10;stroke-dasharray:none;stroke-opacity:1" transform="matrix(.46306 0 0 -.46335 110.81 84.94)"/></g><g style="stroke-width:.761607"><path d="m0 0-.25-.18A48.73 48.73 0 0 0-57.13 0c2.08.95 5.3 2.08 9.27 6.62 3.97 4.54 2.46 17.4 2.46 17.4h33.67s-1.5-12.86 2.46-17.4C-5.29 2.08-2.07.95 0 0" style="fill:#fff;fill-opacity:1;fill-rule:nonzero;stroke:none;stroke-width:.761607" transform="matrix(.46306 0 0 -.46335 88.04 53.8)"/></g><path d="M-125.62-34.69s.7 5.96-1.14 8.07c-1.84 2.1-3.33 2.63-4.3 3.07a22.55 22.55 0 0 0 26.35.08l.11-.08c-.96-.44-2.45-.97-4.29-3.07-1.84-2.1-1.14-8.07-1.14-8.07z" style="fill:#fff5eb;fill-opacity:1;stroke-width:1" transform="translate(192.63 77.35)"/><path d="m319.4 135.89-.1.06a17.19 17.19 0 0 1-20.06-.06c.74-.34 1.87-.74 3.27-2.34 1.4-1.6.87-6.14.87-6.14h11.88s-.53 4.54.87 6.14c1.4 1.6 2.53 2 3.27 2.34z" style="fill:none;stroke:#4c2f27;stroke-width:.534669;stroke-linecap:round;stroke-linejoin:round;stroke-miterlimit:10;stroke-dasharray:none;stroke-opacity:1" transform="matrix(1.3126 0 0 1.31342 -331.2 -124.68)"/><path d="M298.6 116.4c-.06-.79-.8-1.42-1.59-1.45a2.12 2.12 0 0 0-1.89 1.19 2.9 2.9 0 0 0-.08 2.29 4.8 4.8 0 0 0 1.35 1.9c.38.33.82.64 1.32.68.5.04 1.07-.28 1.14-.78-.04-.05-.24-3.83-.24-3.83" style="fill:#fff5eb;fill-opacity:1;fill-rule:nonzero;stroke:none;stroke-width:.268678" transform="matrix(1.3126 0 0 1.31342 -331.2 -124.68)"/><path d="M298.6 116.4c-.06-.79-.8-1.42-1.59-1.45a2.12 2.12 0 0 0-1.89 1.19 2.9 2.9 0 0 0-.08 2.29 4.8 4.8 0 0 0 1.35 1.9c.38.33.82.64 1.32.68.5.04 1.07-.28 1.14-.78-.04-.05-.24-3.83-.24-3.83z" style="fill:none;stroke:#4c2f27;stroke-width:.534669;stroke-linecap:round;stroke-linejoin:round;stroke-miterlimit:10;stroke-dasharray:none;stroke-opacity:1" transform="matrix(1.3126 0 0 1.31342 -331.2 -124.68)"/><path d="M296.6 116.1c.71.1 1.33.64 1.5 1.33-.22.32-.48.73-.51 1.11-.04.39.19.82.57.88" style="fill:#fff;fill-opacity:1;fill-rule:nonzero;stroke:#4c2f27;stroke-width:.534669;stroke-linecap:round;stroke-linejoin:round;stroke-miterlimit:10;stroke-dasharray:none;stroke-opacity:1" transform="matrix(1.3126 0 0 1.31342 -331.2 -124.68)"/><path d="M319.98 116.4c.06-.79.81-1.42 1.6-1.45.78-.02 1.53.49 1.89 1.19.35.7.34 1.55.08 2.29a4.78 4.78 0 0 1-1.35 1.9 2.4 2.4 0 0 1-1.33.68c-.5.04-1.06-.28-1.13-.78.04-.05.24-3.83.24-3.83" style="fill:#fff;fill-opacity:1;fill-rule:nonzero;stroke:none;stroke-width:.268678" transform="matrix(1.3126 0 0 1.31342 -331.2 -124.68)"/><path d="M319.98 116.4c.06-.79.81-1.42 1.6-1.45.78-.02 1.53.49 1.89 1.19.35.7.34 1.55.08 2.29a4.78 4.78 0 0 1-1.35 1.9 2.4 2.4 0 0 1-1.33.68c-.5.04-1.06-.28-1.13-.78.04-.05.24-3.83.24-3.83z" style="fill:#fff5eb;fill-opacity:1;stroke:#4c2f27;stroke-width:.534669;stroke-linecap:round;stroke-linejoin:round;stroke-miterlimit:10;stroke-dasharray:none;stroke-opacity:1" transform="matrix(1.3126 0 0 1.31342 -331.2 -124.68)"/><path d="M321.98 116.1c-.7.1-1.32.64-1.5 1.33.22.32.48.73.52 1.11.04.39-.2.82-.57.88" style="fill:#fff;fill-opacity:1;fill-rule:nonzero;stroke:#4c2f27;stroke-width:.534669;stroke-linecap:round;stroke-linejoin:round;stroke-miterlimit:10;stroke-dasharray:none;stroke-opacity:1" transform="matrix(1.3126 0 0 1.31342 -331.2 -124.68)"/><path d="M320.27 110.67c0 .3 0 .61-.03.9v8.04a10.95 10.95 0 0 1-21.9 0v-8.15h.03c-.02-.26-.02-.52-.02-.79a10.96 10.96 0 1 1 21.92 0" style="fill:#fff5eb;fill-opacity:1;fill-rule:nonzero;stroke:none;stroke-width:.268678" transform="matrix(1.3126 0 0 1.31342 -331.2 -124.68)"/><path d="M320.27 110.67c0 .3 0 .61-.03.9v8.04a10.95 10.95 0 0 1-21.9 0v-8.15h.03c-.02-.26-.02-.52-.02-.79a10.96 10.96 0 1 1 21.92 0z" style="fill:none;stroke:#4c2f27;stroke-width:.534669;stroke-linecap:round;stroke-linejoin:round;stroke-miterlimit:10;stroke-dasharray:none;stroke-opacity:1" transform="matrix(1.3126 0 0 1.31342 -331.2 -124.68)"/><path d="M303.65 128.57h11.4s-2.13 1.67-5.76 1.67c-3.38 0-5.64-1.67-5.64-1.67" style="fill:#4c2f27;fill-opacity:1;fill-rule:nonzero;stroke:none;stroke-width:.268678" transform="matrix(1.3126 0 0 1.31342 -331.32 -124.53)"/><path d="M320.28 106.7c.2-.2.12 3.32.12 3.32s5.6 2.48 6 1.68c.4-.8-.7-1.5-2.7-2.8 0 0-3.62-2-3.42-2.2m-21.93 2.58v4.4s.39-1.2 1.1-1.9c.64-.66 1.1-.99 1.1-.99v-3.12s-1.7.03-2.2 1.61m21.88 0v4.4s-.39-1.2-1.1-1.9a9.18 9.18 0 0 0-1.1-.99v-3.12s1.7.03 2.2 1.61" style="fill:#4c2f27;fill-opacity:1;fill-rule:nonzero;stroke:none;stroke-width:.268678" transform="matrix(1.3126 0 0 1.31342 -331.2 -124.68)"/><path d="m315.63 95.85-.11-.02a30.13 30.13 0 0 0-12.4.02 5.15 5.15 0 0 0-5.15 5.16v9.06l.38-.08a52.35 52.35 0 0 1 22.44.08V101a5.16 5.16 0 0 0-5.16-5.16" style="fill:#ea8b82;fill-opacity:1;fill-rule:nonzero;stroke:none;stroke-width:.268678" transform="matrix(1.3126 0 0 1.31342 -331.2 -124.68)"/><path d="m315.63 95.85-.11-.02a30.13 30.13 0 0 0-12.4.02 5.15 5.15 0 0 0-5.15 5.16v9.06l.38-.08a52.35 52.35 0 0 1 22.44.08V101a5.16 5.16 0 0 0-5.16-5.16z" style="fill:none;stroke:#4c2f27;stroke-width:.534669;stroke-linecap:round;stroke-linejoin:round;stroke-miterlimit:10;stroke-dasharray:none;stroke-opacity:1" transform="matrix(1.3126 0 0 1.31342 -331.2 -124.68)"/><path d="M313.26 107.17a19 19 0 0 0-8.12-.04l-.14-1.37a3.2 3.2 0 0 1 3.2-3.2h1.85a3.2 3.2 0 0 1 3.2 3.2z" style="fill:#4c2f27;fill-opacity:1;fill-rule:nonzero;stroke:none;stroke-width:.268678" transform="matrix(1.3126 0 0 1.31342 -331.2 -124.68)"/><path d="M312.97 107.17v1.56" style="fill:#fff;fill-opacity:1;fill-rule:nonzero;stroke:#4c2f27;stroke-width:.534669;stroke-linecap:round;stroke-linejoin:round;stroke-miterlimit:10;stroke-dasharray:none;stroke-opacity:1" transform="matrix(1.3126 0 0 1.31342 -331.2 -124.68)"/><path d="M303.85 115.34a.83.83 0 1 0 1.65 0 .83.83 0 0 0-1.65 0m10.76 0a.83.83 0 1 1-1.65 0 .83.83 0 0 1 1.65 0" style="fill:#4c2f27;fill-opacity:1;fill-rule:nonzero;stroke:none;stroke-width:.268678" transform="matrix(1.3126 0 0 1.31342 -331.2 -124.68)"/><path d="m302.14 113.06.27-.22a3.2 3.2 0 0 1 2.38-.69c.6.08 1.2.28 1.73.6m4.77 11.78a3.2 3.2 0 0 1-2.38.68c-.6-.07-1.2-.27-1.73-.59" style="fill:none;stroke:#4c2f27;stroke-width:.534669;stroke-linecap:round;stroke-linejoin:round;stroke-miterlimit:10;stroke-dasharray:none;stroke-opacity:1" transform="matrix(1.3126 0 0 1.31342 -331.2 -124.68)"/><path d="M310.69 121.03c-.17.51-.7.87-1.07 1.08a.8.8 0 0 1-.78 0c-.37-.2-.9-.57-1.06-1.08 0 0 .98.33 1.44.34.5 0 1.46-.33 1.47-.34" style="fill:#4c2f27;fill-opacity:1;fill-rule:nonzero;stroke:none;stroke-width:.268678" transform="matrix(1.3126 0 0 1.31342 -331.2 -124.68)"/><path d="m316.33 113.06-.27-.22a3.2 3.2 0 0 0-2.38-.69c-.6.08-1.2.28-1.73.6" style="fill:none;stroke:#4c2f27;stroke-width:.534669;stroke-linecap:round;stroke-linejoin:round;stroke-miterlimit:10;stroke-dasharray:none;stroke-opacity:1" transform="matrix(1.3126 0 0 1.31342 -331.2 -124.68)"/><path d="m316.33 113.06-.27-.22a3.2 3.2 0 0 0-2.38-.69c-.6.08-1.2.28-1.73.6" style="fill:none;stroke:#4c2f27;stroke-width:.534669;stroke-linecap:round;stroke-linejoin:round;stroke-miterlimit:10;stroke-dasharray:none;stroke-opacity:1" transform="matrix(1.3126 0 0 1.31342 -331.2 -124.68)"/><path d="M308.9 139.15s-7.2-9.6-9.6-8.27c-2.4 1.33-2.27 5.6-2.27 5.6z" style="fill:#4c2f27;fill-opacity:1;fill-rule:nonzero;stroke:none;stroke-width:.268678" transform="matrix(1.3126 0 0 1.31342 -331.2 -124.68)"/><path d="M308.9 139.15s-7.2-9.6-9.6-8.27c-2.4 1.33-2.27 5.6-2.27 5.6z" style="fill:none;stroke:#4c2f27;stroke-width:.534669;stroke-linecap:butt;stroke-linejoin:miter;stroke-miterlimit:10;stroke-dasharray:none;stroke-opacity:1" transform="matrix(1.3126 0 0 1.31342 -331.2 -124.68)"/><path d="M309.3 139.15s7.21-9.6 9.61-8.27c2.4 1.33 2.27 5.6 2.27 5.6z" style="fill:#4c2f27;fill-opacity:1;fill-rule:nonzero;stroke:none;stroke-width:.268678" transform="matrix(1.3126 0 0 1.31342 -331.2 -124.68)"/><path d="M309.3 139.15s7.21-9.6 9.61-8.27c2.4 1.33 2.27 5.6 2.27 5.6z" style="fill:none;stroke:#4c2f27;stroke-width:.534669;stroke-linecap:butt;stroke-linejoin:miter;stroke-miterlimit:10;stroke-dasharray:none;stroke-opacity:1" transform="matrix(1.3126 0 0 1.31342 -331.2 -124.68)"/><path d="M304.63 152.89a.35.35 0 0 1-.35-.35v-13.25a.35.35 0 1 1 .7 0v13.25c0 .19-.16.35-.35.35" style="fill:#fff;fill-opacity:1;fill-rule:nonzero;stroke:none;stroke-width:.268678" transform="matrix(1.3126 0 0 1.31342 -331.2 -124.68)"/><path d="M305.53 153.04h-1.8l.28-1.48a.61.61 0 0 1 1.22 0zm-.83-14.56a.4.4 0 1 0 0 .82.4.4 0 0 0 0-.82m0 1.52a1.11 1.11 0 1 1 0-2.22 1.11 1.11 0 0 1 0 2.22m8.6 12.89a.35.35 0 0 1-.34-.35v-13.25a.35.35 0 1 1 .7 0v13.25c0 .19-.16.35-.35.35" style="fill:#fff;fill-opacity:1;fill-rule:nonzero;stroke:none;stroke-width:.268678" transform="matrix(1.3126 0 0 1.31342 -331.2 -124.68)"/><path d="M314.2 153.04h-1.8l.3-1.48a.61.61 0 0 1 1.21 0zm-1.03-14.56a.4.4 0 1 0 0 .82.4.4 0 0 0 0-.82m0 1.52a1.11 1.11 0 1 1 0-2.22 1.11 1.11 0 0 1 0 2.22" style="fill:#fff;fill-opacity:1;fill-rule:nonzero;stroke:none;stroke-width:.268678" transform="matrix(1.3126 0 0 1.31342 -331.2 -124.68)"/></svg>